<?xml version="1.0" encoding="UTF-8" standalone="no"?>
<!-- Created with Inkscape (http://www.inkscape.org/) -->

<svg
   width="29.326958mm"
   height="33.05759mm"
   viewBox="0 0 29.326958 33.05759"
   version="1.1"
   id="svg5"
   inkscape:version="1.1.2 (0a00cf5339, 2022-02-04)"
   sodipodi:docname="icon.svg"
   xmlns:inkscape="http://www.inkscape.org/namespaces/inkscape"
   xmlns:sodipodi="http://sodipodi.sourceforge.net/DTD/sodipodi-0.dtd"
   xmlns="http://www.w3.org/2000/svg"
   xmlns:svg="http://www.w3.org/2000/svg">
  <sodipodi:namedview
     id="namedview7"
     pagecolor="#ffffff"
     bordercolor="#666666"
     borderopacity="1.0"
     inkscape:pageshadow="2"
     inkscape:pageopacity="0.0"
     inkscape:pagecheckerboard="0"
     inkscape:document-units="mm"
     showgrid="false"
     showguides="true"
     inkscape:guide-bbox="true"
     inkscape:zoom="4.489899"
     inkscape:cx="168.04387"
     inkscape:cy="56.014623"
     inkscape:window-width="1880"
     inkscape:window-height="1051"
     inkscape:window-x="40"
     inkscape:window-y="0"
     inkscape:window-maximized="1"
     inkscape:current-layer="layer1">
    <sodipodi:guide
       position="21.757754,33.455541"
       orientation="0,-1"
       id="guide4050" />
    <sodipodi:guide
       position="19.459539,-0.42838748"
       orientation="0,-1"
       id="guide4052" />
    <sodipodi:guide
       position="-2.0314864,33.455541"
       orientation="1,0"
       id="guide4054" />
    <sodipodi:guide
       position="31.952396,17.073392"
       orientation="1,0"
       id="guide4056" />
  </sodipodi:namedview>
  <defs
     id="defs2" />
  <g
     inkscape:label="Layer 1"
     inkscape:groupmode="layer"
     id="layer1"
     transform="translate(-10.770816,-10.239013)">
    <g
       id="g3934"
       transform="matrix(0.81501668,0,0,0.81501668,-184.2386,-68.94495)">
      <path
         stroke="none"
         fill="#989898"
         d="m 239.28366,120.30729 -0.0132,-0.58208 q 0,-7.44802 5.27844,-12.71323 2.67229,-2.68552 5.91344,-3.99521 0.25135,-0.50271 0.635,-0.93927 l -0.0397,-0.62177 q 0,-1.785939 1.24354,-3.04271 l 0.0132,-0.01323 q 1.25677,-1.243542 3.04271,-1.243542 1.0451,0 1.905,0.436562 0.8599,-0.436562 1.91823,-0.436562 1.77271,0 3.02948,1.243542 l 0.0132,0.01323 q 1.24354,1.256771 1.24354,3.04271 l -0.0397,0.60854 q 0.38365,0.44979 0.66146,0.96573 3.21469,1.30969 5.88698,3.98198 5.27844,5.26521 5.27844,12.71323 v 0.52916 0.0265 q -0.19844,7.06438 -5.27844,12.14438 v 0.0132 q -1.09802,1.09802 -2.28865,1.97114 -4.55083,3.30729 -10.42458,3.30729 -6.29708,0 -11.03313,-3.78354 h -0.0132 l -1.66688,-1.49489 q -5.08,-5.08 -5.26521,-12.13115"
         id="path1819"
         style="stroke-width:0.264583" />
      <path
         stroke="none"
         fill="#ffffff"
         d="m 240.342,120.25437 -0.0132,-0.52916 q 0,-7.01146 4.96093,-11.9724 4.96094,-4.96094 11.9724,-4.96094 6.99823,0 11.95917,4.96094 4.97416,4.96094 4.97416,11.9724 v 0.52916 q -0.18521,-6.6675 -4.97416,-11.44323 -4.96094,-4.96093 -11.95917,-4.96093 -7.01146,0 -11.9724,4.96093 -4.77573,4.77573 -4.9477,11.44323 m 26.72291,13.29532 q -4.27302,3.10885 -9.80281,3.10885 -5.92667,0 -10.3849,-3.55865 l 0.33073,-0.60854 q 3.99521,-6.97177 9.64407,-6.97177 5.64885,0 9.63083,6.97177 l 0.58208,1.05834"
         id="path1821"
         style="stroke-width:0.264583" />
      <path
         stroke="none"
         fill="#f0f0f0"
         d="m 267.06491,133.54969 -0.58208,-1.05834 q -3.98198,-6.97177 -9.63083,-6.97177 -5.64886,0 -9.64407,6.97177 l -0.33073,0.60854 -1.5875,-1.41552 q -4.77573,-4.77573 -4.9477,-11.43 0.17197,-6.6675 4.9477,-11.44323 4.96094,-4.96093 11.9724,-4.96093 6.99823,0 11.95917,4.96093 4.78895,4.77573 4.97416,11.44323 -0.18521,6.65427 -4.97416,11.43 -1.03188,1.04511 -2.15636,1.86532"
         id="path1823"
         style="stroke-width:0.264583" />
      <path
         stroke="none"
         fill="#ffffff"
         d="m 270.822,120.51896 q 0,1.50812 -1.07157,2.54 -1.07156,1.08479 -2.57968,1.08479 -1.48167,0 -2.57969,-1.08479 -1.04511,-1.03188 -1.04511,-2.54 0,-1.52136 1.04511,-2.57969 1.09802,-1.07156 2.57969,-1.07156 1.50812,0 2.57968,1.07156 1.07157,1.05833 1.07157,2.57969 m -1.99761,-0.0265 q 0,-0.96573 -0.64823,-1.61396 -0.67469,-0.67469 -1.64041,-0.67469 -0.92605,0 -1.61396,0.67469 -0.67469,0.64823 -0.67469,1.61396 l 0.0132,0.22489 q 0.0661,0.78053 0.66146,1.34938 0.68791,0.66146 1.61396,0.66146 0.96572,0 1.64041,-0.66146 0.56886,-0.56885 0.635,-1.34938 l 0.0132,-0.22489"
         id="path1825"
         style="stroke-width:0.264583" />
      <path
         stroke="none"
         fill="#5b5b5b"
         d="m 268.82439,120.4925 -0.0132,0.22489 q -0.0661,0.78053 -0.635,1.34938 -0.67469,0.66146 -1.64041,0.66146 -0.92605,0 -1.61396,-0.66146 -0.59532,-0.56885 -0.66146,-1.34938 l -0.0132,-0.22489 q 0,-0.96573 0.67469,-1.61396 0.68791,-0.67469 1.61396,-0.67469 0.96572,0 1.64041,0.67469 0.64823,0.64823 0.64823,1.61396"
         id="path1827"
         style="stroke-width:0.264583" />
      <path
         stroke="none"
         fill="#5b5b5b"
         d="m 245.69981,120.4925 q 0,-0.96573 0.64823,-1.61396 0.67468,-0.67469 1.64041,-0.67469 0.92605,0 1.61396,0.67469 0.67469,0.64823 0.67469,1.61396 l -0.0132,0.22489 q -0.0661,0.78053 -0.66146,1.34938 -0.68791,0.66146 -1.61396,0.66146 -0.96573,0 -1.64041,-0.66146 -0.56886,-0.56885 -0.635,-1.34938 l -0.0132,-0.22489"
         id="path1829"
         style="stroke-width:0.264583" />
      <path
         stroke="none"
         fill="#ffffff"
         d="m 245.69981,120.4925 0.0132,0.22489 q 0.0661,0.78053 0.635,1.34938 0.67468,0.66146 1.64041,0.66146 0.92605,0 1.61396,-0.66146 0.59531,-0.56885 0.66146,-1.34938 l 0.0132,-0.22489 q 0,-0.96573 -0.67469,-1.61396 -0.68791,-0.67469 -1.61396,-0.67469 -0.96573,0 -1.64041,0.67469 -0.64823,0.64823 -0.64823,1.61396 m -1.99761,0.0265 q 0,-1.52136 1.07157,-2.57969 1.07156,-1.07156 2.57968,-1.07156 1.48167,0 2.57969,1.07156 1.04511,1.05833 1.04511,2.57969 0,1.50812 -1.04511,2.54 -1.09802,1.08479 -2.57969,1.08479 -1.50812,0 -2.57968,-1.08479 -1.07157,-1.03188 -1.07157,-2.54"
         id="path1831"
         style="stroke-width:0.264583" />
      <path
         stroke="none"
         fill="#d23007"
         d="m 252.5922,130.61281 q 0,-1.01864 0.91282,-1.83885 l 0.54239,-0.50271 q 1.87854,-1.82563 2.79136,-4.14073 0.11906,-0.11906 0.29104,-0.15875 l 0.0926,-0.0132 h 0.0794 l 0.0794,0.0132 q 0.17198,0.0397 0.30427,0.15875 0.92604,2.3151 2.80459,4.15396 l 0.52916,0.48948 q 0.91282,0.82021 0.91282,1.83885 l -0.0132,0.0397 q -0.51594,1.65364 -2.75167,1.38906 -0.89958,-0.10583 -1.64042,-0.68792 l -0.26458,-0.23812 -0.27781,0.23812 q -0.72761,0.58209 -1.64042,0.68792 -2.23573,0.26458 -2.73844,-1.38906 l -0.0132,-0.0397"
         id="path1833"
         style="stroke-width:0.264583" />
      <path
         stroke="none"
         fill="#c62c05"
         d="m 252.5922,130.61281 0.0132,0.0397 q 0.50271,1.65364 2.73844,1.38906 0.91281,-0.10583 1.64042,-0.68792 l 0.27781,-0.23812 0.26458,0.23812 q 0.74084,0.58209 1.64042,0.68792 2.23573,0.26458 2.75167,-1.38906 l 0.0132,-0.0397 -0.0794,0.59531 q -0.50271,2.07698 -2.71198,1.74625 -0.88635,-0.14552 -1.61396,-0.87312 l -0.26458,-0.29104 -0.26458,0.29104 q -0.72761,0.7276 -1.62719,0.87312 -2.19604,0.33073 -2.69875,-1.74625 -0.0794,-0.30427 -0.0794,-0.59531"
         id="path1835"
         style="stroke-width:0.264583" />
      <path
         stroke="none"
         fill="#ff9900"
         d="m 251.37512,122.91344 q 0.29104,-1.83886 1.66688,-3.24115 l 0.70114,-0.59531 q 1.53458,-1.15094 3.54542,-1.15094 2.01083,0 3.54541,1.15094 l 0.67469,0.59531 q 1.38906,1.40229 1.66688,3.24115 -0.13229,0.35718 -0.51594,0.68791 -0.34396,-1.33614 -1.45521,-2.38125 l -0.62177,-0.51593 q -1.42875,-0.99219 -3.29406,-0.99219 -1.86531,0 -3.29406,0.99219 l -0.64823,0.51593 q -1.09802,1.04511 -1.44198,2.38125 -0.39688,-0.3175 -0.52917,-0.68791"
         id="path1837"
         style="stroke-width:0.264583" />
      <path
         stroke="none"
         fill="#f39100"
         d="m 251.90429,123.60135 q 0.34396,-1.33614 1.44198,-2.38125 l 0.64823,-0.51593 q 1.42875,-0.99219 3.29406,-0.99219 1.86531,0 3.29406,0.99219 l 0.62177,0.51593 q 1.11125,1.04511 1.45521,2.38125 -0.42333,0.34396 -1.15094,0.635 -1.74625,0.71438 -4.2201,0.71438 -2.48709,0 -4.24656,-0.71438 -0.72761,-0.29104 -1.13771,-0.635"
         id="path1839"
         style="stroke-width:0.264583" />
      <path
         stroke="none"
         fill="#e08600"
         d="m 251.90429,123.60135 q 0.4101,0.34396 1.13771,0.635 1.75947,0.71438 4.24656,0.71438 2.47385,0 4.2201,-0.71438 0.72761,-0.29104 1.15094,-0.635 0.38365,-0.33073 0.51594,-0.68791 l 0.0794,0.97895 -0.0265,0.39688 q -0.10583,1.32292 -1.71979,2.27542 -1.74625,1.01864 -4.2201,1.01864 -2.48709,0 -4.24656,-1.01864 -1.60073,-0.9525 -1.7198,-2.27542 l -0.0132,-0.39688 q 0,-0.51593 0.0662,-0.97895 0.13229,0.37041 0.52917,0.68791"
         id="path1841"
         style="stroke-width:0.264583" />
      <path
         stroke="none"
         fill="#f53707"
         d="m 262.30241,103.4401 h -0.0132 l 0.0132,-0.0397 v 0.0397 m -11.41677,2.77813 -0.0265,-0.52917 q 0,-1.85208 1.25677,-3.175 l 0.11907,-0.13229 q 0.13229,0.82021 -0.46302,1.5875 -0.75407,0.99219 -0.88636,2.24896 m 1.27,-4.22011 -0.0397,-0.54239 q 0,-1.34938 0.93927,-2.301877 0.9525,-0.939271 2.30188,-0.939271 1.08479,0 1.905,0.621771 0.82021,-0.621771 1.91823,-0.621771 1.33614,0 2.28864,0.939271 0.93928,0.952497 0.93928,2.301877 l -0.0397,0.54239 q -0.14552,-1.01864 -0.89959,-1.78593 -0.9525,-0.939274 -2.28864,-0.939274 -1.09802,0 -1.91823,0.62177 -0.82021,-0.62177 -1.905,-0.62177 -1.34938,0 -2.30188,0.939274 -0.75406,0.76729 -0.89958,1.78593 m 10.13354,0.38365 h 0.0132 l 0.10584,0.11906 q 0.635,0.66146 0.9525,1.46844 0.30427,0.79375 0.30427,1.71979 l -0.0265,0.52917 q -0.13229,-1.25677 -0.87313,-2.24896 -0.60854,-0.76729 -0.47625,-1.5875"
         id="path1843"
         style="stroke-width:0.264583" />
      <path
         stroke="none"
         fill="#d23007"
         d="m 263.63856,106.21823 q -0.11906,1.17739 -0.78052,2.11666 l 0.13229,0.8599 0.0132,0.44979 -0.0132,0.52917 q -0.17198,1.89177 -1.56104,3.28083 -1.5875,1.5875 -3.82323,1.5875 l -0.34396,-0.0132 -0.34396,0.0132 q -2.23573,0 -3.81,-1.5875 -1.38906,-1.37583 -1.56104,-3.2676 l -0.0265,-0.5424 0.0265,-0.46302 q 0.0265,-0.43656 0.13229,-0.84667 -0.67469,-0.93927 -0.79375,-2.11666 0.13229,-1.25677 0.88636,-2.24896 0.59531,-0.76729 0.46302,-1.5875 l -0.0794,-0.38365 q 0.14552,-1.01864 0.89958,-1.78593 0.9525,-0.939274 2.30188,-0.939274 1.08479,0 1.905,0.62177 0.82021,-0.62177 1.91823,-0.62177 1.33614,0 2.28864,0.939274 0.75407,0.76729 0.89959,1.78593 l -0.0794,0.38365 q -0.13229,0.82021 0.47625,1.5875 0.74084,0.99219 0.87313,2.24896 m -1.33615,-2.77813 v -0.0397 l -0.0132,0.0397 h 0.0132"
         id="path1845"
         style="stroke-width:0.264583" />
    </g>
  </g>
</svg>
